# xmcd
# 
# Track frame offsets:
#     150
#     24597
#     48025
#     72552
#     94582
#     113235
#     140017
#     162122
# 
# Disc length: 2504
# 
# Revision: 1
# Processed by: cddbd v1.5.2PL0 Copyright (c) Steve Scherf et al.
# Submitted via: BonkEnc v1.0.8
# 
DISCID=6609c608
DTITLE=Doc Severinsen - Brand New Thing
DYEAR=1977
DGENRE=Fusion
TTITLE0=Do It To It
TTITLE1=Chicken Chatter
TTITLE2=Midnite Flite
TTITLE3=Fernandos Fantasy
TTITLE4=Virginia Sunday
TTITLE5=Soft Tough
TTITLE6=There Is A Girl
TTITLE7=Shenandoah
EXTD=YEAR: 1977
EXTT0=
EXTT1=
EXTT2=
EXTT3=
EXTT4=
EXTT5=
EXTT6=
EXTT7=
PLAYORDER=
